PathFileType	4	(X/Y/Z)	Kaydara	
DataRate	CameraRate	NumFrames	NumMarkers	Units	OrigDataRate	OrigDataStartFrame	OrigNumFrames	
240.00	240.00	4	72	mm	240.00	267	355	
Frame#	Time	Hips			RightUpLeg			RightLeg			RightFoot			RightFoot_End			LeftUpLeg			LeftLeg			LeftFoot			LeftFoot_End			Spine			Spine1			Spine2			Spine3			Neck			Head			Head_End			RightShoulder			RightArm			RightForeArm			RightHand			RightHandThumb1			RightHandThumb2			RightHandThumb3			RightHandThumb3_End			RightInHandIndex			RightHandIndex1			RightHandIndex2			RightHandIndex3			RightHandIndex3_End			RightInHandMiddle			RightHandMiddle1			RightHandMiddle2			RightHandMiddle3			RightHandMiddle3_End			RightInHandRing			RightHandRing1			RightHandRing2			RightHandRing3			RightHandRing3_End			RightInHandPinky			RightHandPinky1			RightHandPinky2			RightHandPinky3			RightHandPinky3_End			LeftShoulder			LeftArm			LeftForeArm			LeftHand			LeftHandThumb1			LeftHandThumb2			LeftHandThumb3			LeftHandThumb3_End			LeftInHandIndex			LeftHandIndex1			LeftHandIndex2			LeftHandIndex3			LeftHandIndex3_End			LeftInHandMiddle			LeftHandMiddle1			LeftHandMiddle2			LeftHandMiddle3			LeftHandMiddle3_End			LeftInHandRing			LeftHandRing1			LeftHandRing2			LeftHandRing3			LeftHandRing3_End			LeftInHandPinky			LeftHandPinky1			LeftHandPinky2			LeftHandPinky3			LeftHandPinky3_End			
		X1	Y1	Z1	X2	Y2	Z2	X3	Y3	Z3	X4	Y4	Z4	X5	Y5	Z5	X6	Y6	Z6	X7	Y7	Z7	X8	Y8	Z8	X9	Y9	Z9	X10	Y10	Z10	X11	Y11	Z11	X12	Y12	Z12	X13	Y13	Z13	X14	Y14	Z14	X15	Y15	Z15	X16	Y16	Z16	X17	Y17	Z17	X18	Y18	Z18	X19	Y19	Z19	X20	Y20	Z20	X21	Y21	Z21	X22	Y22	Z22	X23	Y23	Z23	X24	Y24	Z24	X25	Y25	Z25	X26	Y26	Z26	X27	Y27	Z27	X28	Y28	Z28	X29	Y29	Z29	X30	Y30	Z30	X31	Y31	Z31	X32	Y32	Z32	X33	Y33	Z33	X34	Y34	Z34	X35	Y35	Z35	X36	Y36	Z36	X37	Y37	Z37	X38	Y38	Z38	X39	Y39	Z39	X40	Y40	Z40	X41	Y41	Z41	X42	Y42	Z42	X43	Y43	Z43	X44	Y44	Z44	X45	Y45	Z45	X46	Y46	Z46	X47	Y47	Z47	X48	Y48	Z48	X49	Y49	Z49	X50	Y50	Z50	X51	Y51	Z51	X52	Y52	Z52	X53	Y53	Z53	X54	Y54	Z54	X55	Y55	Z55	X56	Y56	Z56	X57	Y57	Z57	X58	Y58	Z58	X59	Y59	Z59	X60	Y60	Z60	X61	Y61	Z61	X62	Y62	Z62	X63	Y63	Z63	X64	Y64	Z64	X65	Y65	Z65	X66	Y66	Z66	X67	Y67	Z67	X68	Y68	Z68	X69	Y69	Z69	X70	Y70	Z70	X71	Y71	Z71	X72	Y72	Z72	

267	1.108	921.0129	906.651	56.2195	934.4553706600007	865.0763427194298	-16.661620571840388	864.8200151531001	456.30756358182396	-70.45358886659452	952.2480045530879	97.87781266862915	-187.1987857993211	879.5701369876116	17.844317710998478	-29.594293550540996	914.0543528650485	919.3119638640599	141.13416633636805	861.4889467884724	518.7437136345627	250.75393632530233	775.7921657038232	88.69089436957543	291.641529657107	656.3644492990135	-0.38828545349951266	172.37418394976012	891.2278601296244	1036.6099931135768	4.642540318463978	841.905816242946	1109.2576674787763	-36.56379196608291	784.5553736553118	1179.9944748473467	-79.61861058020227	720.9701926640976	1239.2274997541688	-120.91812298169454	652.356522086918	1302.156547924749	-164.3818227148459	589.2431424848969	1359.7125892349916	-202.73143684326007	464.7987606249003	1451.6793410343334	-238.3821776389437	676.7862848991127	1268.0291370052962	-170.0916815736692	668.622924829823	1220.7661616478094	-231.65902831856903	675.3567454930343	1060.4000389369933	-125.56657879453937	648.2705723421143	995.4045476193733	-102.84088864798065	657.9925722559622	1011.5562892306192	-115.3316491908071	656.8976504013876	1010.7257139448845	-117.12648537316731	655.0393025479048	1007.26227268251	-116.45580208314136	652.5526077004636	1001.9068734173218	-114.25364512844732	655.8491342198803	1003.6958656529642	-110.22761052017549	659.4994277552914	1001.3363669698185	-111.64335071759743	657.2702420610813	994.3541891173028	-109.23759815026904	653.8758259984224	989.615341969057	-107.33527504185739	649.7114346965168	985.4245007337502	-105.48642812181326	652.5148715340338	995.6773452962739	-104.79340528748696	654.273112713489	989.040258514722	-103.23588158127649	651.3828779463702	980.3642658401133	-99.8848673496979	647.0679731394913	974.1397664295176	-97.24147111271687	642.4045850701525	969.3076405942604	-95.0491608197674	650.1080525355792	990.1073595770171	-100.94017841885831	649.7173509963199	979.4261491259184	-96.26426972766878	646.7271171857292	970.7937920733526	-92.60381776495218	642.3148533869645	964.2213602544773	-89.66122536876422	637.8115452152124	959.4085870180703	-87.41375732964062	646.8975202132302	983.481109764266	-96.28354226782912	644.7019664423997	969.7156440437229	-89.19883814697464	641.5739249440629	961.1796645956285	-85.13390582639425	638.0007447995067	955.6003577718698	-82.43912471107967	633.8073263979871	950.8850413834241	-80.13259852181748	674.0061656849623	1295.4708522706196	-129.02456704717514	687.447470273597	1314.9273429134987	-42.09288590080542	738.9433173333708	1106.2516987700185	-65.30832909491434	698.6496868314778	961.2433549051109	-55.00000276904469	691.1251510029597	976.6955239756631	-60.04028875825966	691.0634601686776	971.2897561477869	-63.66660654434425	692.4563054899063	964.1591370186575	-65.62250573925346	694.8457513930205	955.3350971281907	-66.7658813304968	695.1949367090316	967.2584114153067	-58.49381028356756	696.9159456907971	958.7188476341099	-61.58046428845987	700.1796917873728	946.3048803808223	-63.55489207017532	702.0397083347086	938.4396066150422	-64.9115023420892	703.4652101002991	931.8300128949577	-66.12145054119527	699.1383938899604	958.0929841374157	-56.829265720940356	702.9494204689489	944.8080023541227	-58.93957648141348	707.0281403353799	930.0721557461926	-60.864216046551974	709.5204304642432	920.0120692369743	-62.39060474942104	711.2008779235173	912.5024316193394	-63.66088259436157	701.869264633462	951.8775246396797	-55.573143862543134	707.6223986855413	934.6989660120092	-56.370063291314494	711.700302456407	920.6595856088322	-57.80933121907045	714.381995522946	910.3209140907625	-59.15513521468132	716.0936165424579	902.9590883424448	-60.28955000393135	705.0555251965422	944.6303734134455	-54.04658512819444	712.2593715354013	924.5446461801538	-53.83286945553764	716.3155558094898	911.5118076408978	-54.610209875520894	718.6541038454171	903.1045584784539	-55.41035873552304	720.3904550834897	896.0846869615398	-56.310826770391174
268	1.113	921.0129	906.651	56.2195	933.4824984361713	864.7855330686804	-16.699332103441655	863.9059189322031	455.9843834838151	-70.35481267826287	951.8763860177289	97.72584291694601	-187.4307674728945	879.2434979383452	17.675264735195597	-29.813284417327267	914.9667022332414	919.6005323114961	141.1959358924558	862.4904602781567	519.0316302382012	250.85893702037745	776.5159634187357	88.98036492878528	291.4232848371447	657.150571737888	-0.16256554244785737	172.13370226840146	891.5244263802874	1036.631304413229	4.541569529381422	842.2538562891724	1109.3618153203754	-36.58981903553561	784.9159265104056	1180.1800428364406	-79.53824728559638	721.2772067831536	1239.4689535915224	-120.68394422084914	652.6051387799089	1302.4555529040204	-163.98065778409907	589.4437901817172	1360.0685494986815	-202.17287526320217	464.957580293192	1452.078688321002	-237.56208930905396	676.8922119950798	1268.2066770067802	-169.73739979107626	667.9196832993808	1220.3856778525487	-230.78611742049785	674.8478857462528	1061.6331665049145	-122.89952614118742	648.8645248393574	997.7583039953099	-98.26458766195566	658.5971984577893	1014.0609589920062	-110.70721620458612	657.5692618539038	1013.2885909772201	-112.35134794580803	655.7508067013297	1009.8644011644045	-111.56258997743595	653.2915935862162	1004.540632083079	-109.25077513458919	656.4225205535195	1006.2216055823607	-105.55663980445283	660.0509951612426	1004.069079188903	-106.75770191292438	657.8493768907829	997.1678968605546	-104.17625723571702	654.5027594529163	992.4297660393186	-102.17763474413651	650.3986289342885	988.2060576145286	-100.25778512344588	653.0726679087176	998.1894035458943	-100.09296688686887	654.8011839651747	991.7468107678773	-98.31011334076884	651.9391069773819	983.156649487225	-94.76416276128639	647.6809412412094	976.9318048023842	-92.00303289169915	643.0830368330592	972.0631109257755	-89.73228806709031	650.6549177087368	992.6051490739152	-96.22453287307141	650.2266684865376	982.0878274381926	-91.33388834012464	647.2590456256124	973.5273496399154	-87.50059125592816	642.9005027929037	966.9530263136866	-84.44287644466814	638.458272373673	962.1051434395173	-82.1209116691349	647.4362044308205	985.9511586763417	-91.5555061374234	645.1995580084956	972.3212277332269	-84.2666031708332	642.0867925393371	963.8375142982019	-80.05960114333449	638.5514253885015	958.2542739887411	-77.2790849634752	634.4113247240884	953.506384599078	-74.90554926117967	674.4449993410049	1295.8558896998775	-128.6929747394409	688.5075205880956	1315.8667238408307	-41.82081126162342	739.6911845586576	1106.9689176577165	-64.36062955333502	698.111060164583	962.1161404108169	-52.897308081915085	690.5306187371089	977.6296777781897	-57.860821448562696	690.5076017549706	972.2431664600363	-61.44261665821054	691.9666716054783	965.1271247219762	-63.372266725947	694.4449382607404	956.3162119528147	-64.49784032087085	694.7395560183613	968.2081769667802	-56.32138288796312	696.7187944034761	959.7651901051024	-59.3320861286922	700.1440913056977	947.3871770667279	-61.26967925461998	702.0425285351714	939.5186642789935	-62.61419212827174	703.458017333609	932.8891375825104	-63.82141427200077	698.7800325262549	959.0410317935311	-54.673183624522515	702.895433160332	945.8493368678679	-56.71826616768464	707.1623841057192	931.1521462572624	-58.605134254295784	709.7067621781684	921.0878797885758	-60.11809622378108	711.3790255436033	913.556292723796	-61.385955131469366	701.5733611934992	952.8222499226387	-53.43041279299444	707.6549244661967	935.7254032619802	-54.180039256722345	711.908617556023	921.718969741566	-55.58896447313169	714.6467781046438	911.3758731016131	-56.92317777109848	716.3536565938596	903.9932273652742	-58.055976848991726	704.8202379339921	945.5657431088441	-51.92258453550171	712.3644338435051	925.5503932796436	-51.676527676211656	716.5782285781577	912.5424338323132	-52.43381625048825	718.9661168741497	904.1312169796263	-53.22756406491394	720.7029709358321	897.0924795766389	-54.12777782578516
269	1.117	921.0129	906.651	56.2195	933.6073257728285	864.8147089380279	-16.909436101537832	864.3236050335024	455.9323367465722	-70.38742756511232	952.8186437882953	97.83417087452115	-187.7759629285618	880.1922160780294	17.699873189428082	-30.198576574968186	914.8775140102736	919.5634346529379	141.37067589148702	862.474435699157	518.999412155523	251.0899366529812	776.2040455637447	88.9546653876434	291.3408234172437	656.9081097763626	-0.2575784180784724	172.02643670786836	891.3610649758251	1036.6646439899703	4.704844154114958	841.9836640215652	1109.3875561159111	-36.31587531705277	784.5566916002747	1180.2137755108752	-79.13742988005104	720.869740238553	1239.553678025159	-120.14409591128884	652.1469030262899	1302.5918635584621	-163.2941862261717	588.9482918046427	1360.2590262560677	-201.3508899084944	464.437096799143	1452.2813693269827	-236.61876261254287	676.2946269739966	1268.2216569584189	-169.0903016862574	666.6210088066175	1219.869477116351	-229.73412686308902	673.3972620352563	1061.3694202318563	-121.6394424781716	647.8442362142822	998.4756884858984	-95.73795135738281	657.6323306069801	1014.9353008136742	-108.10666591656161	656.7059545571263	1014.2193142067617	-109.61447410329937	654.9464070383658	1010.8327653160809	-108.72026035324976	652.5262029439186	1005.5390049234694	-106.31154471156327	655.4124474511054	1007.1171275318409	-102.9128854148311	659.0471855457131	1005.1762747214107	-103.89043850577607	656.89244201312	998.3551203043671	-101.14667695607442	653.6074410822202	993.6147238803446	-99.06931981393045	649.5762027190094	989.354026244537	-97.09926795379404	652.0322733845223	999.0699425046391	-97.42806124526916	653.7504951626636	992.8257267779826	-95.41577437357628	650.9355922847737	984.3201526014562	-91.69062645092077	646.7498506821705	978.0912460698977	-88.83350696436504	642.230786629978	973.1814483347987	-86.50734952989546	649.5924267037626	993.4704124307791	-93.55034612916673	649.1342896439753	983.1197213974124	-88.44589421281741	646.2037610477425	974.6298417997912	-84.45464543398874	641.9129334948673	968.0499360803374	-81.30341782426036	637.5438097008131	963.1626160562066	-78.92890962363744	646.3520787464754	986.7870683815431	-88.87743669581144	644.0729768686385	973.2943333097835	-81.38982548068907	640.9837461018458	964.8615353463882	-77.05454704571984	637.494794332626	959.2715028347807	-74.20493795493462	633.4177281745185	954.4871264973112	-71.78434448260931	674.168355138373	1296.0821633461153	-128.0699352800011	688.8465004686727	1316.66560952781	-41.2633264155563	740.2366971962351	1107.616783779968	-62.24244959604733	697.3802136779975	962.923189733848	-49.6972056564919	689.9441239497171	978.625782264316	-54.43495012054445	689.944441989036	973.3953378854526	-57.62910712852519	691.4103602429998	966.3733789502677	-59.29274878635151	693.8863092313316	957.6284343875294	-60.19994021301644	694.1443004885548	969.1709391761884	-52.902812624242344	696.245379126537	960.9049021593088	-55.534125493640744	699.6931346830022	948.6415040324144	-57.13353923512608	701.5695209253639	940.8377095493652	-58.2533179678161	702.9424383608181	934.2573372613127	-59.26476455146994	698.1520281069716	959.9575592990257	-51.27502839722985	702.3685712021618	946.9134574494019	-52.96112533110879	706.6552264947877	932.3346392467173	-54.482795027524666	709.1706924416563	922.3452388348086	-55.72646397641588	710.7952810633053	914.8658821906153	-56.78100312605886	700.9197105885717	953.7016208245424	-50.05705777028541	707.0713889066824	936.7048718630467	-50.50853888675303	711.3371894376631	922.7945448007895	-51.603643589080576	714.044768294664	912.519921814227	-52.68048460395103	715.7055502819172	905.1846008447912	-53.61382817448024	704.1287996392439	946.3969584191581	-48.58327159622176	711.7160487936751	926.443871635428	-48.086986677860885	715.9313242121025	913.5014097933856	-48.60124208979097	718.2929338089393	905.1345958274488	-49.21126150250055	719.9866580702021	898.1345838760141	-49.93709377377044
270	1.121	921.0129	906.651	56.2195	933.8037352226027	864.815621643548	-17.1200213137735	864.8151451206068	455.8425243537655	-70.34826019782358	953.8940395268503	97.88447724847829	-187.93891659205255	881.2451207554211	17.703456865617515	-30.396315088729313	914.7180506817941	919.5584547722399	141.55584084049215	862.3593368947775	519.0330387093495	251.4356924468355	775.7913771750708	89.00231802570269	291.4767173647327	656.598053979295	-0.31828130650903397	172.13624991820257	891.1897926399947	1036.681455106398	4.82347683040021	841.7090215413791	1109.3774281101416	-36.123676462886934	784.199288852342	1180.1920879574982	-78.85790917307028	720.4743217604782	1239.5664469356377	-119.76559505202336	651.7099130768175	1302.6372735081025	-162.81171603474058	588.4826595640783	1360.3430481103412	-200.7712175175051	463.9524945428004	1452.3484955946046	-236.01895086681895	675.7224306910732	1268.1437628749268	-168.62660497055924	665.5078100121449	1219.330829273564	-228.9690352777185	672.1184655631864	1061.050991234415	-120.69929557962091	645.991892634369	999.1494494803967	-93.7820959258578	655.8989599793958	1015.7610967016519	-106.08107270404412	655.0924679311661	1015.0668602060244	-107.49575825431616	653.3942905222095	1011.6940733899323	-106.52622114958818	651.0063232196721	1006.4105812044717	-104.04574158659932	653.604828557059	1007.9675124767037	-100.8406889361957	657.2512996746418	1006.2237292898768	-101.61301198121765	655.1360471620229	999.4562017240112	-98.74053499352186	651.9098890839937	994.6891529894576	-96.61537129916618	647.9505049139011	990.3659380281442	-94.62746557753549	650.1655798281841	999.9057238313804	-95.33518597209154	651.8632715815037	993.8458459452664	-93.11153063629325	649.0836640739592	985.396111970904	-89.24388384430095	644.9651896530868	979.1337658215048	-86.32810496625589	640.5229251329297	974.1549328943165	-83.98193214186013	647.6832339567881	994.2917245306572	-91.44783891075242	647.1684634908571	984.0962302528505	-86.14486484614264	644.2607634850174	975.6519978157957	-82.0276608263215	640.0306124825488	969.0382373195007	-78.81891457792506	635.7317106407124	964.0852323139018	-76.4251505997998	644.3971935267061	987.5790693142609	-86.77177237643382	642.0364250858547	974.2136246558811	-79.09921651617366	638.9533611694137	965.8119703612923	-74.6612044273594	635.5028011994762	960.1946288553627	-71.7687325889547	631.4845726040351	955.3505565503484	-69.33056772549763	673.9024727397762	1296.2323440810096	-127.6433677550586	689.1658212355112	1317.4283756372995	-40.909975627922876	740.8186275806321	1108.2578059071798	-60.118481177352194	696.6630811722598	963.721460461766	-46.31943733630638	689.418543628107	979.6196729537411	-50.86450784392767	689.5021478672429	974.582118560523	-53.63301821128413	691.0087209565916	967.6800745968277	-54.994542880338535	693.5037133113053	959.0227634171165	-55.6449781624042	693.5824548835542	970.1297509778991	-49.31255334850503	695.8202725416436	962.0613205321256	-51.518616800730925	699.3184916435177	949.9425245204246	-52.72428866588507	701.2052501835135	942.2289403115074	-53.58322873341167	702.5726049097736	935.7234417103712	-54.3679489335122	697.5361054768553	960.8706111204441	-47.67939207291527	701.8567796969952	947.9944875754967	-48.94784003030023	706.1908762552773	933.5667881296513	-50.04040147196405	708.7151999057355	923.6830267400385	-50.96964678517295	710.3318957091403	916.2840358391384	-51.77624071833985	700.2624586919685	954.5771663253229	-46.469352446388065	706.4726577129711	937.698039499853	-46.55596750784114	710.7718315909098	923.9123518088278	-47.278260602735344	713.4837228025403	913.7358572066827	-48.052449864382	715.1350816407407	906.4743214922775	-48.75297807557476	703.417053632621	947.2245564951272	-45.01015254152518	711.0256717886261	927.3494250921868	-44.19099415576297	715.2549758584342	914.4952074738571	-44.410192245860976	717.6135911790861	906.1943830315183	-44.801140427126704	719.2954296515322	899.2565162937495	-45.32169371823115
